<svg width="106" height="63" viewBox="0 0 106 63" fill="none" xmlns="http://www.w3.org/2000/svg">
<g clip-path="url(#clip0_7697_5021)">
<path d="M6.96222 0C5.15957 0.241588 3.6673 3.1903 0 1.78681C3.10305 5.49641 -1.34572 8.14436 1.26654 10.0039C-1.34572 11.8634 3.10305 14.5094 0 18.219C3.6673 16.8155 5.15957 19.7645 6.96222 20.0058C7.05762 18.2893 7.36684 16.5116 7.36164 14.9006C7.3541 12.8293 6.82917 11.035 4.66095 10.0039C6.87536 8.95085 7.37702 7.09996 7.36164 4.97271C7.35033 3.39706 7.05509 1.66961 6.96222 0ZM17.7767 0C19.5221 4.46055 15.8554 6.27585 15.5554 8.46843C17.6318 8.58129 19.7805 8.93874 21.7401 8.95364C24.3856 8.97211 26.6854 8.36171 27.9949 5.66835C29.2772 8.30554 31.5102 8.94619 34.0862 8.95364C36.0896 8.95967 38.3017 8.58459 40.4365 8.46843C40.1363 6.27585 36.4677 4.46055 38.2132 0C33.5998 3.77425 30.3075 -1.63598 27.9949 1.54131C25.6824 -1.63598 22.3902 3.77425 17.7767 0ZM40.4365 8.46843C42.5129 8.58129 44.6617 8.93874 46.6212 8.95364C49.2667 8.97211 51.5665 8.36171 52.8761 5.66835C54.1584 8.30554 56.3894 8.94619 58.9653 8.95364C60.9688 8.95967 63.1809 8.58459 65.3157 8.46843C65.0156 6.27585 61.3489 4.46055 63.0943 0C58.4809 3.77425 55.1887 -1.63598 52.8761 1.54131C50.5635 -1.63598 47.2713 3.77425 42.6578 0C44.4033 4.46055 40.7365 6.27585 40.4365 8.46843ZM65.3157 8.46843C67.3921 8.58129 69.5408 8.93874 71.5004 8.95364C74.146 8.97211 76.4457 8.36171 77.7553 5.66835C79.0376 8.30554 81.2705 8.94619 83.8465 8.95364C85.85 8.95967 88.062 8.58459 90.1968 8.46843C89.8967 6.27585 86.23 4.46055 87.9755 0C83.362 3.77425 80.0679 -1.63598 77.7553 1.54131C75.4427 -1.63598 72.1505 3.77425 67.5371 0C69.2825 4.46055 65.6161 6.27585 65.3157 8.46843ZM98.79 0C98.6972 1.66961 98.4018 3.39706 98.3905 4.97271C98.3754 7.09996 98.8769 8.95085 101.091 10.0039C98.923 11.035 98.398 12.8293 98.3905 14.9006C98.3867 16.5116 98.6944 18.2893 98.79 20.0058C100.593 19.7644 102.085 16.8155 105.752 18.219C102.649 14.5094 107.098 11.8634 104.486 10.0039C107.098 8.14436 102.649 5.49641 105.752 1.78681C102.085 3.1903 100.593 0.241603 98.79 0ZM39.8695 10.7989C38.0968 12.5804 40.7155 16.618 36.3251 19.4271C42.2796 19.0815 41.7434 25.3888 45.4852 24.1758C45.4852 28.1102 51.3645 25.6561 52.8761 31.4263C54.3878 25.6561 60.2651 28.1102 60.2651 24.1758C64.0069 25.3889 63.4725 19.0817 69.4271 19.4271C65.0368 16.6181 67.6533 12.5804 65.8808 10.7989L63.6848 15.5748C60.01 15.5748 57.8101 18.552 55.8106 18.5483C54.8342 18.5463 53.9063 17.8319 52.8761 15.7132C51.8459 17.8319 50.9161 18.5459 49.9396 18.5483C47.9401 18.5532 45.7422 15.5748 42.0674 15.5748L39.8695 10.7989ZM69.4271 19.4271C73.7897 24.6425 67.5355 28.3638 71.2081 30.9782C67.5355 33.5925 73.7897 37.3139 69.4271 42.5292C74.583 40.5561 76.6804 44.7014 79.2148 45.0409C79.3452 42.6936 79.7571 40.2647 79.776 38.0495C79.7986 35.0588 79.0934 32.4587 75.9801 30.9782C79.0285 29.5286 79.7704 27.006 79.7779 24.0939C79.7854 21.829 79.3492 19.3288 79.2148 16.9154C76.6804 17.2548 74.583 21.4003 69.4271 19.4271ZM52.8761 31.4263C51.3645 37.1966 45.4852 34.7425 45.4852 38.6769C41.7434 37.4639 42.2796 43.7712 36.3251 43.4256C40.7155 46.2347 38.0968 50.2723 39.8695 52.0538L42.0674 47.2779C45.7422 47.2779 47.9401 44.2996 49.9396 44.3044C50.9161 44.3064 51.8459 45.0208 52.8761 47.1395C53.9063 45.0208 54.8342 44.3068 55.8106 44.3044C57.8101 44.3002 60.01 47.2779 63.6848 47.2779L65.8808 52.0538C67.6533 50.2723 65.0368 46.2346 69.4271 43.4256C63.4725 43.771 64.0069 37.4638 60.2651 38.6769C60.2651 34.7425 54.3878 37.1966 52.8761 31.4263ZM36.3251 19.4271C31.1692 21.4003 29.0699 17.2548 26.5355 16.9154C26.4009 19.3288 25.967 21.829 25.9743 24.0939C25.9818 27.006 26.7237 29.5286 29.772 30.9782C26.6588 32.4587 25.9546 35.0588 25.9762 38.0495C25.9951 40.2647 26.405 42.6936 26.5355 45.0409C29.0699 44.7014 31.1692 40.5561 36.3251 42.5292C31.9624 37.3139 38.2167 33.5925 34.5441 30.9782C38.2167 28.3638 31.9624 24.6425 36.3251 19.4271ZM13.8698 12.2681C14.2692 18.9997 6.97857 18.3946 8.38078 22.6247C3.83302 22.6247 6.66975 29.2693 0 30.9782C6.66979 32.6871 3.83298 39.3316 8.38078 39.3316C6.97865 43.5616 14.2694 42.9568 13.8698 49.6882C17.1168 44.725 21.7834 47.6859 23.8426 45.682L18.3204 43.1976C18.3204 39.0433 14.8795 36.5569 14.8851 34.2966C14.888 33.1927 15.7135 32.1428 18.1625 30.9782C15.7135 29.8136 14.8879 28.7636 14.8851 27.6598C14.8813 25.3994 18.3204 22.913 18.3204 18.7588L23.8426 16.2763C21.7834 14.2725 17.1168 17.2313 13.8698 12.2681ZM91.8823 12.2681C88.6354 17.2313 83.9688 14.2725 81.9096 16.2763L87.4299 18.7588C87.4299 22.913 90.8689 25.3994 90.8652 27.6598C90.8622 28.7636 90.0387 29.8136 87.5897 30.9782C90.0387 32.1428 90.8624 33.1927 90.8652 34.2966C90.8727 36.5569 87.4299 39.0433 87.4299 43.1976L81.9096 45.682C83.9688 47.6859 88.6354 44.725 91.8823 49.6882C91.4828 42.9568 98.7716 43.5616 97.3695 39.3316C101.917 39.3316 99.0824 32.6871 105.752 30.9782C99.0824 29.2693 101.917 22.6247 97.3695 22.6247C98.7717 18.3946 91.483 18.9997 91.8823 12.2681ZM6.96222 42.8468C5.15957 43.0882 3.6673 46.0372 0 44.6337C3.10305 48.3433 -1.34572 50.9912 1.26654 52.8507C-1.34572 54.7103 3.10305 57.3563 0 61.0659C3.6673 59.6624 5.15957 62.6111 6.96222 62.8527C7.05498 61.1831 7.35036 59.4556 7.36164 57.88C7.37672 55.7527 6.87536 53.9018 4.66095 52.8488C6.82917 51.8177 7.35414 50.0234 7.36164 47.9521C7.36541 46.3411 7.05773 44.5634 6.96222 42.8468ZM98.79 42.8468C98.6942 44.5634 98.3854 46.3411 98.3905 47.9521C98.398 50.0234 98.923 51.8177 101.091 52.8488C98.8769 53.9018 98.3751 55.7527 98.3905 57.88C98.4018 59.4556 98.6971 61.1831 98.79 62.8527C100.593 62.6111 102.085 59.6624 105.752 61.0659C102.649 57.3563 107.098 54.7103 104.486 52.8507C107.098 50.9912 102.649 48.3433 105.752 44.6337C102.085 46.0372 100.593 43.0882 98.79 42.8468ZM21.7401 53.8991C19.7805 53.9138 17.6318 54.2714 15.5554 54.3843C15.8555 56.5768 19.5221 58.3921 17.7767 62.8527C22.3902 59.0784 25.6824 64.4887 27.9949 61.3114C30.3075 64.4887 33.5998 59.0784 38.2132 62.8527C36.4677 58.3921 40.1363 56.5768 40.4365 54.3843C38.3017 54.2681 36.0896 53.8928 34.0862 53.8991C31.5102 53.9062 29.2772 54.5472 27.9949 57.1843C26.6854 54.491 24.3856 53.8804 21.7401 53.8991ZM40.4365 54.3843C40.7366 56.5768 44.4033 58.3921 42.6578 62.8527C47.2713 59.0784 50.5635 64.4887 52.8761 61.3114C55.1887 64.4887 58.4809 59.0784 63.0943 62.8527C61.3489 58.3921 65.0155 56.5768 65.3157 54.3843C63.1809 54.2681 60.9688 53.8928 58.9653 53.8991C56.3894 53.9062 54.1584 54.5472 52.8761 57.1843C51.5665 54.491 49.2667 53.8804 46.6212 53.8991C44.6617 53.9138 42.5129 54.2714 40.4365 54.3843ZM65.3157 54.3843C65.6162 56.5768 69.2825 58.3921 67.5371 62.8527C72.1505 59.0784 75.4427 64.4887 77.7553 61.3114C80.0679 64.4887 83.362 59.0784 87.9755 62.8527C86.23 58.3921 89.8966 56.5768 90.1968 54.3843C88.062 54.2681 85.85 53.8928 83.8465 53.8991C81.2705 53.9062 79.0376 54.5472 77.7553 57.1843C76.4457 54.491 74.146 53.8804 71.5004 53.8991C69.5408 53.9138 67.3921 54.2714 65.3157 54.3843Z" fill="#B0030C"/>
</g>
<defs>
<clipPath id="clip0_7697_5021">
<rect width="105.752" height="62.8527" fill="white"/>
</clipPath>
</defs>
</svg>
