<svg width="640" height="381" viewBox="0 0 640 381" fill="none" xmlns="http://www.w3.org/2000/svg">
<g clip-path="url(#clip0_301_20418)">
<path d="M42.1346 0.622559C31.2251 2.08462 22.1941 19.9299 0 11.4362C18.7793 33.8862 -8.14412 49.9113 7.66498 61.165C-8.14412 72.4188 18.7793 88.4317 0 110.882C22.1941 102.388 31.2251 120.235 42.1346 121.696C42.7119 111.307 44.5833 100.549 44.5518 90.7995C44.5062 78.264 41.3294 67.4049 28.2075 61.165C41.6089 54.7921 44.6449 43.5907 44.5518 30.7168C44.4833 21.1812 42.6966 10.7268 42.1346 0.622559ZM107.583 0.622559C118.146 27.6173 95.9548 38.6033 94.1393 51.8726C106.705 52.5555 119.709 54.7188 131.569 54.8089C147.579 54.9208 161.497 51.2267 169.422 34.9268C177.182 50.8867 190.696 54.7639 206.286 54.8089C218.41 54.8455 231.798 52.5755 244.717 51.8726C242.901 38.6033 220.698 27.6173 231.262 0.622559C203.342 23.4639 183.418 -9.27819 169.422 9.95038C155.427 -9.27819 135.503 23.4639 107.583 0.622559ZM244.717 51.8726C257.283 52.5555 270.287 54.7188 282.146 54.8089C298.157 54.9208 312.075 51.2267 320 34.9268C327.76 50.8867 341.262 54.7639 356.851 54.8089C368.976 54.8455 382.363 52.5755 395.283 51.8726C393.467 38.6033 371.276 27.6173 381.84 0.622559C353.92 23.4639 333.996 -9.27819 320 9.95038C306.004 -9.27819 286.08 23.4639 258.16 0.622559C268.723 27.6173 246.533 38.6033 244.717 51.8726ZM395.283 51.8726C407.849 52.5555 420.853 54.7188 432.712 54.8089C448.723 54.9208 462.641 51.2267 470.566 34.9268C478.327 50.8867 491.84 54.7639 507.429 54.8089C519.554 54.8455 532.941 52.5755 545.861 51.8726C544.044 38.6033 521.854 27.6173 532.417 0.622559C504.497 23.4639 484.562 -9.27819 470.566 9.95038C456.57 -9.27819 436.647 23.4639 408.727 0.622559C419.29 27.6173 397.101 38.6033 395.283 51.8726ZM597.866 0.622559C597.304 10.7268 595.516 21.1812 595.448 30.7168C595.357 43.5907 598.391 54.7921 611.793 61.165C598.671 67.4049 595.494 78.264 595.448 90.7995C595.425 100.549 597.287 111.307 597.866 121.696C608.775 120.235 617.806 102.388 640 110.882C621.221 88.4317 648.144 72.4188 632.335 61.165C648.144 49.9113 621.221 33.8862 640 11.4362C617.806 19.9299 608.775 2.08471 597.866 0.622559ZM241.285 65.9763C230.558 76.7576 246.406 101.193 219.835 118.193C255.871 116.101 252.626 154.273 275.271 146.931C275.271 170.742 310.852 155.89 320 190.811C329.148 155.89 364.717 170.742 364.717 146.931C387.362 154.273 384.128 116.103 420.165 118.193C393.595 101.193 409.43 76.7576 398.703 65.9763L385.413 94.8797C363.174 94.8797 349.86 112.897 337.759 112.875C331.85 112.863 326.235 108.539 320 95.7168C313.765 108.539 308.138 112.86 302.229 112.875C290.128 112.904 276.827 94.8797 254.587 94.8797L241.285 65.9763ZM420.165 118.193C446.567 149.756 408.717 172.277 430.943 188.099C408.717 203.921 446.567 226.442 420.165 258.005C451.368 246.063 464.061 271.15 479.399 273.205C480.188 259 482.681 244.3 482.795 230.894C482.932 212.794 478.664 197.059 459.823 188.099C478.271 179.326 482.761 164.06 482.807 146.436C482.852 132.729 480.212 117.598 479.399 102.993C464.061 105.047 451.368 130.135 420.165 118.193ZM320 190.811C310.852 225.732 275.271 210.88 275.271 234.691C252.626 227.35 255.871 265.521 219.835 263.429C246.406 280.43 230.558 304.865 241.285 315.646L254.587 286.743C276.827 286.743 290.128 268.719 302.229 268.748C308.138 268.76 313.765 273.083 320 285.906C326.235 273.083 331.85 268.762 337.759 268.748C349.86 268.723 363.174 286.743 385.413 286.743L398.703 315.646C409.43 304.865 393.595 280.429 420.165 263.429C384.128 265.52 387.362 227.349 364.717 234.691C364.717 210.88 329.148 225.732 320 190.811ZM219.835 118.193C188.632 130.135 175.928 105.047 160.59 102.993C159.775 117.598 157.149 132.729 157.194 146.436C157.239 164.06 161.729 179.326 180.177 188.099C161.336 197.059 157.074 212.794 157.205 230.894C157.319 244.3 159.8 259 160.59 273.205C175.928 271.15 188.632 246.063 219.835 258.005C193.433 226.442 231.283 203.921 209.057 188.099C231.283 172.277 193.433 149.756 219.835 118.193ZM83.9387 74.8678C86.3553 115.606 42.2335 111.945 50.7195 137.545C23.197 137.545 40.3646 177.757 0 188.099C40.3648 198.441 23.1968 238.653 50.7195 238.653C42.234 264.253 86.3567 260.592 83.9387 301.33C103.589 271.293 131.831 289.212 144.293 277.085L110.873 262.049C110.873 236.908 90.0492 221.861 90.0827 208.181C90.1008 201.501 95.0964 195.147 109.917 188.099C95.0964 181.051 90.0996 174.697 90.0827 168.017C90.0599 154.337 110.873 139.289 110.873 114.149L144.293 99.1248C131.831 86.9983 103.589 104.904 83.9387 74.8678ZM556.061 74.8678C536.411 104.904 508.169 86.9983 495.707 99.1248L529.116 114.149C529.116 139.289 549.928 154.337 549.906 168.017C549.888 174.697 544.904 181.051 530.083 188.099C544.904 195.147 549.889 201.501 549.906 208.181C549.951 221.861 529.116 236.908 529.116 262.049L495.707 277.085C508.169 289.212 536.411 271.293 556.061 301.33C553.643 260.592 597.755 264.253 589.269 238.653C616.792 238.653 599.635 198.441 640 188.099C599.636 177.757 616.791 137.545 589.269 137.545C597.755 111.945 553.645 115.606 556.061 74.8678ZM42.1346 259.927C31.2251 261.388 22.1941 279.234 0 270.741C18.7793 293.191 -8.14412 309.215 7.66498 320.469C-8.14412 331.723 18.7793 347.736 0 370.186C22.1941 361.693 31.2251 379.538 42.1346 381C42.6959 370.896 44.4836 360.441 44.5518 350.906C44.6431 338.032 41.6089 326.83 28.2075 320.457C41.3294 314.218 44.5064 303.358 44.5518 290.823C44.5746 281.074 42.7126 270.315 42.1346 259.927ZM597.866 259.927C597.286 270.315 595.417 281.074 595.448 290.823C595.494 303.358 598.671 314.218 611.793 320.457C598.391 326.83 595.355 338.032 595.448 350.906C595.516 360.441 597.303 370.896 597.866 381C608.775 379.538 617.806 361.693 640 370.186C621.221 347.736 648.144 331.723 632.335 320.469C648.144 309.215 621.221 293.191 640 270.741C617.806 279.234 608.775 261.388 597.866 259.927ZM131.569 326.814C119.709 326.903 106.705 329.067 94.1393 329.75C95.9557 343.019 118.146 354.005 107.583 381C135.503 358.159 155.427 390.901 169.422 371.672C183.418 390.901 203.342 358.159 231.262 381C220.698 354.005 242.9 343.019 244.717 329.75C231.798 329.047 218.41 326.776 206.286 326.814C190.696 326.857 177.182 330.736 169.422 346.696C161.497 330.396 147.579 326.701 131.569 326.814ZM244.717 329.75C246.533 343.019 268.723 354.005 258.16 381C286.08 358.159 306.004 390.901 320 371.672C333.996 390.901 353.92 358.159 381.84 381C371.276 354.005 393.466 343.019 395.283 329.75C382.363 329.047 368.976 326.776 356.851 326.814C341.262 326.857 327.76 330.736 320 346.696C312.075 330.396 298.157 326.701 282.146 326.814C270.287 326.903 257.283 329.067 244.717 329.75ZM395.283 329.75C397.102 343.019 419.29 354.005 408.727 381C436.647 358.159 456.57 390.901 470.566 371.672C484.562 390.901 504.497 358.159 532.417 381C521.854 354.005 544.044 343.019 545.861 329.75C532.941 329.047 519.554 326.776 507.429 326.814C491.84 326.857 478.327 330.736 470.566 346.696C462.641 330.396 448.723 326.701 432.712 326.814C420.853 326.903 407.849 329.067 395.283 329.75Z" fill="#B0030C"/>
</g>
<defs>
<clipPath id="clip0_301_20418">
<rect width="640" height="380.377" fill="white" transform="translate(0 0.622559)"/>
</clipPath>
</defs>
</svg>
