<svg width="50" height="48" viewBox="0 0 50 48" fill="none" xmlns="http://www.w3.org/2000/svg">
<path d="M24.9998 2.4e-06C22.7165 8.81339 13.8373 5.0659 13.8373 11.0753C8.18528 9.22251 8.99435 18.8564 0 18.3284C6.63171 22.6189 2.67692 28.785 5.35451 31.506L8.67372 24.2101C14.2245 24.2101 17.5456 19.6632 20.5658 19.6705C22.0408 19.6741 23.4439 20.7639 25 24C26.5562 20.7639 27.9592 19.6741 29.4342 19.6704C32.4544 19.663 35.7755 24.2101 41.3262 24.2101L44.6455 31.5058C47.3228 28.7848 43.3684 22.6188 50 18.3284C41.0055 18.8564 41.8146 9.22241 36.1625 11.0753V11.0752C36.1625 5.06593 27.2834 8.81336 25 0L24.9998 2.4e-06ZM34.1992 34.3231C30.3082 34.3354 26.9369 35.3131 25 39.3412C23.0219 35.2274 19.5475 34.2955 15.5515 34.324C12.5915 34.3452 9.34551 34.8928 6.20916 35.0651C6.6626 38.414 12.2013 41.187 9.56484 48C16.5334 42.2353 21.5067 50.4996 24.9999 45.6467C28.493 50.4996 33.4665 42.2353 40.4351 48C37.7985 41.187 43.3373 38.414 43.7907 35.0651C40.5662 34.8879 37.2255 34.3135 34.1992 34.3231Z" fill="#D31F28"/>
</svg>
