<svg width="124" height="34" viewBox="0 0 124 34" fill="none" xmlns="http://www.w3.org/2000/svg">
<path d="M8.58786 0C6.05807 0 4.00542 0.62312 2.42985 1.86928C0.854309 3.09322 0.0665017 4.79556 0.0665017 6.97635C0.0665017 8.44509 0.410456 9.6356 1.09841 10.548C1.78629 11.4604 2.6074 12.1502 3.56163 12.6175C4.51583 13.0848 5.74744 13.5521 7.25642 14.0194C8.29942 14.331 9.09827 14.6092 9.65306 14.854C10.23 15.0988 10.7071 15.4103 11.0844 15.7886C11.4838 16.1669 11.6835 16.6454 11.6835 17.2239C11.6835 17.9137 11.4394 18.459 10.9512 18.8596C10.463 19.2379 9.79732 19.4271 8.95405 19.4271C8.13299 19.4271 7.46728 19.2044 6.95689 18.7594C6.44647 18.292 6.14689 17.6245 6.05814 16.7566H0C0.0443915 18.2921 0.465926 19.605 1.26478 20.6954C2.08586 21.7858 3.17329 22.6092 4.52696 23.1655C5.88062 23.7219 7.41173 24 9.12042 24C10.8735 24 12.3936 23.6774 13.6807 23.0321C14.9678 22.3867 15.9442 21.5188 16.6099 20.4284C17.2978 19.338 17.6418 18.1251 17.6418 16.7899C17.6418 15.388 17.2978 14.242 16.6099 13.3518C15.922 12.4617 15.1009 11.783 14.1467 11.3157C13.2147 10.8484 11.9942 10.3588 10.4852 9.84701C8.97622 9.35744 7.86665 8.90131 7.15655 8.4785C6.44642 8.05568 6.09143 7.46594 6.09143 6.70932C6.09143 6.01946 6.30222 5.49656 6.72386 5.14052C7.14547 4.76219 7.70021 4.57301 8.38812 4.57301C9.18702 4.57301 9.84167 4.79556 10.3521 5.24062C10.8625 5.66344 11.1399 6.25313 11.1842 7.00972H17.3422C17.2313 4.80666 16.388 3.09322 14.8124 1.86928C13.2369 0.62312 11.162 0 8.58786 0ZM21.1369 0.333845V23.7663H26.8289V0.333845H21.1369ZM37.88 0.333845L29.4251 23.7663H35.3834H35.4487C35.4487 23.6984 35.4513 23.6308 35.4526 23.5633C35.8078 22.5188 36.1619 21.474 36.5155 20.4289C36.9834 19.7719 37.5914 19.2109 38.312 18.7937C40.0836 17.768 42.2663 17.768 44.0379 18.7937C44.7063 19.1807 45.2777 19.6916 45.7304 20.2879C46.1196 21.4477 46.5094 22.6073 46.9009 23.7663H52.9256L44.4709 0.333845H37.88ZM55.4886 0.333845V23.7663H61.1806V13.4186L69.0362 23.7663H75.993L66.6063 11.8164L75.6603 0.333845H68.9696L61.1806 10.6148V0.333845H55.4886ZM86.2515 0.333845L77.7968 23.7663H78.3115H83.755L83.7809 23.6898C84.169 22.549 84.5557 21.4079 84.9418 20.2665C85.3919 19.6794 85.9576 19.176 86.618 18.7937C88.3896 17.768 90.5724 17.768 92.344 18.7937C93.0732 19.2159 93.6867 19.7855 94.1567 20.4526C94.5048 21.489 94.8533 22.5252 95.203 23.5611C95.2056 23.6293 95.2069 23.6977 95.2069 23.7663H95.2721H100.65H101.297L92.8422 0.333845H86.2515ZM103.283 0.333845V23.7663H111.918C119.382 23.7663 123.726 17.9833 124 12.0501C124 4.94603 118.305 0.383204 111.918 0.333845H103.283ZM108.897 5.20726H111.557C113.68 5.20726 115.332 5.80815 116.514 7.0098C117.696 8.2115 118.287 9.8915 118.287 12.0501C118.287 14.2086 117.696 15.8776 116.514 17.057C115.332 18.2364 113.68 18.8262 111.557 18.8262H108.897V5.20726ZM41.142 6.64227V6.64259C41.8348 8.67734 42.5204 10.7146 43.2043 12.7523C41.8463 12.5009 40.4526 12.504 39.0956 12.7614C39.7788 10.7225 40.4611 8.68292 41.142 6.64227ZM89.5136 6.64259C90.2067 8.68189 90.8933 10.7233 91.5786 12.7651C90.2225 12.5052 88.8293 12.4996 87.4716 12.7486C88.1533 10.7141 88.8342 8.67898 89.5136 6.64275V6.64259Z" fill="#D31F28"/>
<path d="M2.14945 28C1.51629 28 1.0025 28.1556 0.608142 28.4672C0.213784 28.7732 0.0165879 29.1988 0.0165879 29.744C0.0165879 30.1112 0.102675 30.4089 0.274886 30.6369C0.44702 30.8651 0.652594 31.0376 0.891446 31.1544C1.1302 31.2713 1.4384 31.388 1.81613 31.5048C2.0772 31.5827 2.27716 31.6522 2.41604 31.7134C2.56043 31.7746 2.67983 31.8525 2.77424 31.9471C2.87427 32.0417 2.92416 32.1614 2.92416 32.306C2.92416 32.4785 2.86306 32.6146 2.74081 32.7148C2.61862 32.8094 2.45199 32.8568 2.24093 32.8568C2.03544 32.8568 1.86886 32.8011 1.74117 32.6897C1.61341 32.573 1.5386 32.4061 1.5163 32.1891H0C0.0112389 32.5729 0.116706 32.9013 0.316605 33.1739C0.522098 33.4465 0.794219 33.6522 1.13297 33.7913C1.4718 33.9304 1.85508 34 2.28278 34C2.72153 34 3.1018 33.9193 3.42398 33.758C3.74612 33.5967 3.99056 33.3797 4.15715 33.1071C4.32934 32.8344 4.41539 32.5314 4.41539 32.1975C4.41539 31.8471 4.32934 31.5605 4.15715 31.338C3.98492 31.1154 3.77957 30.9456 3.54072 30.8288C3.30748 30.7119 3.002 30.5896 2.62433 30.4616C2.24647 30.3392 1.96891 30.2252 1.79119 30.1195C1.61341 30.0138 1.52459 29.8666 1.52459 29.6774C1.52459 29.5049 1.5773 29.3741 1.68287 29.2851C1.78843 29.1906 1.92728 29.1432 2.09944 29.1432C2.29931 29.1432 2.46326 29.1989 2.59102 29.3102C2.71871 29.4159 2.78815 29.5631 2.79931 29.7523H4.34037C4.31253 29.2015 4.10155 28.7732 3.70722 28.4672C3.31291 28.1556 2.79369 28 2.14945 28ZM9.7307 28C9.09749 28 8.5837 28.1556 8.18939 28.4672C7.79501 28.7732 7.5979 29.1988 7.5979 29.744C7.5979 30.1112 7.68387 30.4089 7.85608 30.6369C8.02829 30.8651 8.23389 31.0376 8.47264 31.1544C8.71154 31.2713 9.01967 31.388 9.39732 31.5048C9.65837 31.5827 9.85837 31.6522 9.99729 31.7134C10.1417 31.7746 10.2611 31.8525 10.3556 31.9471C10.4555 32.0417 10.5056 32.1614 10.5056 32.306C10.5056 32.4785 10.4445 32.6146 10.3223 32.7148C10.2001 32.8094 10.0334 32.8568 9.82243 32.8568C9.61689 32.8568 9.45005 32.8011 9.32236 32.6897C9.19462 32.573 9.1198 32.4061 9.09755 32.1891H7.58119C7.59243 32.5729 7.69784 32.9013 7.8978 33.1739C8.10334 33.4465 8.37546 33.6522 8.71416 33.7913C9.05299 33.9304 9.4363 34 9.86397 34C10.3027 34 10.6832 33.9193 11.0054 33.758C11.3275 33.5967 11.5719 33.3797 11.7385 33.1071C11.9107 32.8344 11.9968 32.5314 11.9968 32.1975C11.9968 31.8471 11.9107 31.5605 11.7385 31.338C11.5664 31.1154 11.3608 30.9456 11.122 30.8288C10.8887 30.7119 10.5833 30.5896 10.2056 30.4616C9.82785 30.3392 9.55013 30.2252 9.37238 30.1195C9.19462 30.0138 9.10572 29.8666 9.10572 29.6774C9.10572 29.5049 9.15858 29.3741 9.26412 29.2851C9.36966 29.1906 9.50854 29.1432 9.68075 29.1432C9.88067 29.1432 10.0444 29.1989 10.1722 29.3102C10.3 29.4159 10.3695 29.5631 10.3805 29.7523H11.9218C11.894 29.2015 11.6831 28.7732 11.2887 28.4672C10.8944 28.1556 10.375 28 9.7307 28ZM47.762 28C47.2122 28 46.707 28.1278 46.2459 28.3837C45.7905 28.6397 45.4267 28.9957 45.1545 29.452C44.8879 29.9082 44.7547 30.4228 44.7547 30.9958C44.7547 31.5689 44.8879 32.0862 45.1545 32.548C45.4267 33.0042 45.7905 33.3603 46.2459 33.6162C46.707 33.8721 47.2122 34 47.762 34C48.312 34 48.8146 33.8721 49.27 33.6162C49.7255 33.3603 50.0864 33.0042 50.3531 32.548C50.6197 32.0862 50.7531 31.5689 50.7531 30.9958C50.7531 30.4228 50.6197 29.9082 50.3531 29.452C50.092 28.9957 49.7311 28.6397 49.27 28.3837C48.8146 28.1278 48.312 28 47.762 28ZM72.7471 28C72.1139 28 71.6002 28.1556 71.2059 28.4672C70.8115 28.7732 70.6144 29.1988 70.6144 29.744C70.6144 30.1112 70.7004 30.4089 70.8725 30.6369C71.0448 30.8651 71.2502 31.0376 71.4891 31.1544C71.7279 31.2713 72.0362 31.388 72.4139 31.5048C72.6749 31.5827 72.8749 31.6522 73.0136 31.7134C73.1581 31.7746 73.2776 31.8525 73.372 31.9471C73.472 32.0417 73.5219 32.1614 73.5219 32.306C73.5219 32.4785 73.4609 32.6146 73.3387 32.7148C73.2165 32.8094 73.0499 32.8568 72.8389 32.8568C72.6334 32.8568 72.4665 32.8011 72.3388 32.6897C72.211 32.573 72.1361 32.4061 72.1139 32.1891H70.5977C70.6089 32.5729 70.7143 32.9013 70.9143 33.1739C71.1198 33.4465 71.3919 33.6522 71.7307 33.7913C72.0696 33.9304 72.4527 34 72.8804 34C73.3192 34 73.6997 33.9193 74.0218 33.758C74.344 33.5967 74.5883 33.3797 74.755 33.1071C74.9271 32.8344 75.0132 32.5314 75.0132 32.1975C75.0132 31.8471 74.9271 31.5605 74.755 31.338C74.5827 31.1154 74.3772 30.9456 74.1383 30.8288C73.905 30.7119 73.5996 30.5896 73.2219 30.4616C72.8443 30.3392 72.5665 30.2252 72.3888 30.1195C72.211 30.0138 72.1223 29.8666 72.1223 29.6774C72.1223 29.5049 72.1751 29.3741 72.2806 29.2851C72.3861 29.1906 72.5249 29.1432 72.6971 29.1432C72.8971 29.1432 73.061 29.1989 73.1887 29.3102C73.3164 29.4159 73.3859 29.5631 73.397 29.7523H74.9382C74.9104 29.2015 74.6994 28.7732 74.3051 28.4672C73.9108 28.1556 73.3914 28 72.7471 28ZM5.29031 28.0834V33.9416H6.71481V28.0834H5.29031ZM12.555 28.0834V29.2266H14.1046V33.9416H15.5291V29.2266H17.0788V28.0834H12.555ZM17.7952 28.0834V33.9416H21.3776V32.7982H19.2198V31.5131H21.1276V30.4115H19.2198V29.2266H21.3776V28.0834H17.7952ZM22.3023 28.0834V33.9416H23.7269V30.42L25.0432 33.9416H26.1929L27.5009 30.4283V33.9416H28.9256V28.0834H27.2511L25.6264 32.139L23.9852 28.0834H22.3023ZM31.7165 28.0834V33.9416H33.1412V28.0834H31.7165ZM34.174 28.0834V33.9416H35.5987V30.3281L37.9814 33.9416H39.4061V28.0834H37.9814V31.7134L35.5987 28.0834H34.174ZM40.4392 28.0834V33.9416H41.8635V31.5716H43.6465V30.4616H41.8635V29.2266H44.2463V28.0834H40.4392ZM51.5446 28.0834V33.9416H52.969V31.7302H53.3105L54.527 33.9416H56.1349L54.7854 31.6217C55.213 31.4937 55.535 31.2768 55.7516 30.9708C55.9739 30.6648 56.0849 30.3171 56.0849 29.9276C56.0849 29.5827 56.0044 29.2711 55.8433 28.9929C55.6822 28.7091 55.4379 28.4867 55.1101 28.3253C54.788 28.164 54.3965 28.0834 53.9355 28.0834H51.5446ZM56.9763 28.0834V33.9416H58.4009V30.42L59.7174 33.9416H60.867L62.175 30.4283V33.9416H63.5996V28.0834H61.925L60.3005 32.139L58.6591 28.0834H56.9763ZM66.3571 28.0834L64.2411 33.9416H65.7322L66.0823 32.9069H68.265L68.6148 33.9416H70.1229L68.0066 28.0834H66.3571ZM75.8879 28.0834V33.9416H77.3125V28.0834H75.8879ZM81.8446 28.0834L79.7286 33.9416H81.2198L81.5698 32.9069H83.7525L84.1024 33.9416H85.6104L83.4942 28.0834H81.8446ZM86.2518 28.0834V33.9416H87.6765V31.3545L89.6426 33.9416H91.3837L89.0344 30.9541L91.3005 28.0834H89.6259L87.6765 30.6537V28.0834H86.2518ZM93.7915 28.0834L91.6753 33.9416H93.1666L93.5165 32.9069H95.6993L96.0491 33.9416H97.5571L95.441 28.0834H93.7915ZM98.1985 28.0834V33.9416H100.39C101.001 33.9416 101.537 33.8192 101.998 33.5744C102.464 33.3296 102.822 32.9848 103.072 32.5397C103.328 32.0946 103.456 31.5854 103.456 31.0124C103.456 30.4338 103.328 29.9248 103.072 29.4853C102.822 29.0402 102.467 28.6953 102.006 28.4506C101.545 28.2058 101.006 28.0834 100.39 28.0834H98.1985ZM104.255 28.0834V33.9416H107.838V32.7982H105.68V31.5131H107.588V30.4115H105.68V29.2266H107.838V28.0834H104.255ZM108.763 28.0834V33.9416H110.187V30.42L111.503 33.9416H112.653L113.961 30.4283V33.9416H115.386V28.0834H113.711L112.086 32.139L110.445 28.0834H108.763ZM116.41 28.0834V33.9416H117.835V28.0834H116.41ZM118.868 28.0834V33.9416H120.293V31.3545L122.259 33.9416H124L121.651 30.9541L123.917 28.0834H122.242L120.293 30.6537V28.0834H118.868ZM52.969 29.2685H53.8522C54.1133 29.2685 54.3076 29.3324 54.4353 29.4603C54.5687 29.5883 54.6353 29.7635 54.6353 29.9861C54.6353 30.2197 54.5687 30.4005 54.4353 30.5285C54.3076 30.6565 54.1133 30.7204 53.8522 30.7204H52.969V29.2685ZM47.762 29.2938C48.2286 29.2938 48.6008 29.4496 48.8784 29.7612C49.1618 30.0672 49.3034 30.4788 49.3034 30.9962C49.3034 31.5081 49.1618 31.9197 48.8784 32.2313C48.6008 32.5428 48.2286 32.6986 47.762 32.6986C47.2899 32.6986 46.9123 32.5456 46.6292 32.2396C46.3514 31.928 46.2125 31.5136 46.2125 30.9962C46.2125 30.4733 46.3514 30.0587 46.6292 29.7527C46.9123 29.4467 47.2899 29.2938 47.762 29.2938ZM99.6233 29.3023H100.298C100.837 29.3023 101.256 29.4525 101.556 29.7529C101.856 30.0533 102.006 30.4734 102.006 31.013C102.006 31.5527 101.856 31.9699 101.556 32.2648C101.256 32.5597 100.837 32.7071 100.298 32.7071H99.6233V29.3023ZM67.1735 29.6612L67.8985 31.8059H66.4571L67.1735 29.6612ZM82.661 29.6612L83.3859 31.8059H81.9446L82.661 29.6612ZM94.6078 29.6612L95.3327 31.8059H93.8915L94.6078 29.6612Z" fill="#333333"/>
</svg>
